<svg width="340" height="123" xmlns="http://www.w3.org/2000/svg"><g transform="translate(0 1)" fill="none" fill-rule="evenodd"><path d="M305.501 66.572c-1.135 13.522-8.079 23.283-19.48 23.283-10.85 0-19.644-12.221-19.644-27.297 0-15.077 7.653-27.298 19.644-27.298 12.595 0 17.514 7.505 19.053 18.007l-11.552 1.19c-.848-6.783-3.097-11.544-7.5-11.544-4.368 0-7.909 8.453-7.909 18.879 0 10.427 3.541 18.879 7.909 18.879 5.125 0 7.121-5.457 7.707-13.011l11.772-1.088z" fill="currentColor" fill-rule="nonzero"/><path d="M339.263 58.027s-.12-6.269-.81-10.079c-.69-3.81-1.32-5.88-3.48-9.66-2.159-3.78-7.139-5.97-9.9-6.6-2.76-.63-9.359-1.56-14.579 2.19-5.221 3.75-7.11 9.09-7.11 9.09s.93 1.439 2.04 4.98c1.11 3.54 1.2 6.54 1.2 6.54l-6.33.66s-.24 2.49-.149 4.98c.09 2.49.719 5.46.719 5.46l5.971-.601s.21.541-.39 4.531c-.6 3.99-1.605 6.554-1.605 6.554l.72 1.215s2.34 3.555 6.21 6.03 8.189 2.43 10.034 2.16c1.845-.27 5.4-.855 8.28-3.33 2.88-2.475 4.5-4.41 6.48-8.64 1.979-4.23 2.789-10.98 2.699-15.48zm-12.758 10.598c-.946 4.859-3.03 6.495-4.38 7.124-1.35.63-3.42.991-4.98-.51-1.56-1.5-3.232-4.132-4.35-9.09-1.061-4.707-.982-7.342-.69-12.51.288-5.095 2.362-10.62 3.84-12.42 1.178-1.435 2.04-2.01 3.12-2.28 1.08-.271 2.669.195 3.479.795.811.6 2.161 1.455 3.361 5.235 1.2 3.78 1.173 5.252 1.35 7.32.216 2.542.149 5.49.149 5.49.001 3.421.046 5.986-.899 10.846z" fill="currentColor" fill-rule="nonzero"/><path d="M339.263 58.027s-.12-6.269-.81-10.079c-.69-3.81-1.32-5.88-3.48-9.66-2.159-3.78-7.139-5.97-9.9-6.6-2.76-.63-9.359-1.56-14.579 2.19-5.221 3.75-7.11 9.09-7.11 9.09s.93 1.439 2.04 4.98c1.11 3.54 1.2 6.54 1.2 6.54l-6.33.66s-.24 2.49-.149 4.98c.09 2.49.719 5.46.719 5.46l5.971-.601s.21.541-.39 4.531c-.6 3.99-1.605 6.554-1.605 6.554l.72 1.215s2.34 3.555 6.21 6.03 8.189 2.43 10.034 2.16c1.845-.27 5.4-.855 8.28-3.33 2.88-2.475 4.5-4.41 6.48-8.64 1.979-4.23 2.789-10.98 2.699-15.48zm-12.758 10.598c-.946 4.859-3.03 6.495-4.38 7.124-1.35.63-3.42.991-4.98-.51-1.56-1.5-3.232-4.132-4.35-9.09-1.061-4.707-.982-7.342-.69-12.51.288-5.095 2.362-10.62 3.84-12.42 1.178-1.435 2.04-2.01 3.12-2.28 1.08-.271 2.669.195 3.479.795.811.6 2.161 1.455 3.361 5.235 1.2 3.78 1.173 5.252 1.35 7.32.216 2.542.149 5.49.149 5.49.001 3.421.046 5.986-.899 10.846z" stroke="currentColor" stroke-width=".36"/><path d="M161.257 42.913s.068 2.492 0 4.083c-.085 1.998-.51 5.102-.51 5.102-9.824 5.614-20.039 16.683-25.512 26.533-5.103 9.184-7.546 19.562 1.021 24.492 4.148 2.438 14.665 1.715 21.94-3.062V79.142l-23.471 5.103 2.688-6.361 32.008-7.416v35.206l-7.654 1.531v-2.552c-6.122 7.144-22.465 10.453-31.124 6.124-12.246-6.124-10.952-28.157 1.021-41.839 10.075-11.518 17.857-19.319 29.593-26.025zM175.033 51.588l6.633-1.531v6.181c1.849-3.263 3.585-4.939 6.894-6.706 2.42-1.293 4.021-1.754 6.757-1.964v9.619c-2.019-.099-3.243.141-5.098.949-3.611 1.572-5.583 3.893-6.511 7.722v37.06l-10.205 1.347V59.152s.716-2.414 1.021-3.992c.265-1.383.509-3.572.509-3.572z" fill="currentColor" fill-rule="nonzero"/><path d="M224.513 60.277c-1.08-15.12-12.75-14.911-12.75-14.911s.089.781.45 1.261c.36.48 1.5 1.32 1.5 1.32l-5.82 2.7c-3.495-1.351-4.134-3.873-4.134-3.873s-1.704.718-3.666 2.193c-2.535 1.904-3.66 3.96-3.66 3.96s.03 5.499-.12 5.464c-.611-.141-2.88-.125-2.88-.125s-1.791 4.692-2.22 8.34c-.39 3.305-.48 9.9.3 13.141.78 3.239 2.94 13.08 10.8 17.76 7.861 4.68 13.5 1.8 16.5-1.021 3-2.819 4.14-5.64 5.339-10.979 1.199-5.339 1.441-10.11.361-25.23zm-8.82 27.54c-2.134 2.86-3.662 2.975-6.061 2.851-2.819-.146-5.189-4.696-6.089-9.826-.9-5.13-1.541-9.062-.225-17.055 1.17-7.11 4.545-10.496 6.525-10.755 1.653-.217 3.645.314 4.95 2.16 1.304 1.845 2.879 5.63 3.24 9.405.385 4.042.393 7.259.393 7.259.027 5.251-.618 13.126-2.733 15.961z" fill="currentColor" fill-rule="nonzero"/><path d="M224.513 60.277c-1.08-15.12-12.75-14.911-12.75-14.911s.089.781.45 1.261c.36.48 1.5 1.32 1.5 1.32l-5.82 2.7c-3.495-1.351-4.134-3.873-4.134-3.873s-1.704.718-3.666 2.193c-2.535 1.904-3.66 3.96-3.66 3.96s.03 5.499-.12 5.464c-.611-.141-2.88-.125-2.88-.125s-1.791 4.692-2.22 8.34c-.39 3.305-.48 9.9.3 13.141.78 3.239 2.94 13.08 10.8 17.76 7.861 4.68 13.5 1.8 16.5-1.021 3-2.819 4.14-5.64 5.339-10.979 1.199-5.339 1.441-10.11.361-25.23zm-8.82 27.54c-2.134 2.86-3.662 2.975-6.061 2.851-2.819-.146-5.189-4.696-6.089-9.826-.9-5.13-1.541-9.062-.225-17.055 1.17-7.11 4.545-10.496 6.525-10.755 1.653-.217 3.645.314 4.95 2.16 1.304 1.845 2.879 5.63 3.24 9.405.385 4.042.393 7.259.393 7.259.027 5.251-.618 13.126-2.733 15.961z" stroke="currentColor" stroke-width=".36"/><path d="M220.954 45.465l10.205-1.531v50.004c0 1.273 1.105 1.686 2.042 2.551l-10.715 1.327c-.725-1.037-1.531-2.014-1.531-2.857V45.465h-.001zM83.191 18.422l-.51 7.143c-19.899 6.123-29.465 7.508-42.86 13.266-14.343 6.165-11.736 14.797-11.736 22.96v36.227c0 7.654-.103 11.207 3.572 14.797 4.979 4.809 50.266-7.509 87.25-13.267 0 0 .52 1.907 1.021 3.062.638 1.472 2.042 3.572 2.042 3.572-41.84 6.123-82.793 20.482-97.966 13.776-6.875-2.98-7.653-7.653-7.653-16.327V49.036c0-4.082 2.379-9.291 9.729-12.474 15.171-6.706 31.861-11.434 57.111-18.14z" stroke="currentColor" stroke-width=".36" fill="currentColor" fill-rule="nonzero"/><path d="M.948 73.073v5.758c12.125-10.683 36.87-11.299 40.303-9.619 6.733 3.295 8.84 9.716 10.057 15.598 1.604 7.752 1.572 15.477 8.105 18.374 3.021 1.339 12.022 1.925 17.654-.062 6.929-2.446 11.225-6.634 10.715-12.247-.741-8.146-7.663-15.659-12.756-22.45-6.123-8.164-12.966-16.261-10.204-19.389 2.726-3.184 9.61-2.527 16.327-2.041v-7.654c-10.456-2.768-23.878.604-27.553 6.633-4.071 6.596 3.931 18.038 10.205 26.022 2.891 3.68 8.674 11.225 12.246 15.817 2.101 2.703.804 5.487-3.062 7.144-3.571 1.531-8.005 1.829-10.205-2.551-1.988-3.958-3.482-11.465-6.123-19.389-2.041-6.123-9.686-11.564-18.879-12.246-13.775-1.02-28.061 4.083-36.83 12.302z" stroke="currentColor" stroke-width=".36" fill="currentColor" fill-rule="nonzero"/><path d="M90.334 16.892v9.185l-16.837 5.102v5.384l16.837-4.741s-.019 43.748 0 49.922c-.019 7.602 0 12.705 4.082 15.255 2.854 1.784 8.666 2.971 13.267 2.551 4.45-.406 7.695-2.342 10.204-5.102v-6.634c-2.001 3.088-5.717 5-9.184 5.103-1.187.035-7.144-.494-7.144-6.633V29.648l13.266-3.062v-5.102l-13.266 3.061v-9.694l-11.225 2.041z" stroke="currentColor" stroke-width=".36" fill="currentColor" fill-rule="nonzero"/><path stroke="currentColor" stroke-width=".36" fill="currentColor" fill-rule="nonzero" d="M107.172 33.219l9.184-3.061v54.595l-9.184 3.061z"/><ellipse stroke="currentColor" stroke-width=".5" fill="currentColor" fill-rule="nonzero" transform="rotate(164.995 111.564 16.142)" cx="111.564" cy="16.142" rx="6.511" ry="3.807"/><path d="M120.948 12.299l9.695-1.531v55.106c-1.999 2.001-3.017 3.265-4.592 5.612-2.68 3.993-3.841 6.585-5.103 11.226V12.299h0z" stroke="currentColor" stroke-width=".36" fill="currentColor" fill-rule="nonzero"/><path d="M211.26 24.545l-1.53 6.633c-6.396 2.163-10.277 3.295-16.328 5.613-7.064 2.706-10.715 4.082-17.858 7.143 0 0-.015-2.003-.11-3.393-.097-1.403-.4-3.75-.4-3.75 6.845-3.068 10.781-4.654 17.858-7.144 7.441-2.365 11.108-3.497 18.368-5.102z" fill="currentColor" fill-rule="nonzero"/><path d="M221.158 37.199l15.614-3.98c0-13.776-1.482-29.883 16.062-32.661 11.736-1.897 13.395 2.913 15.055 4.809l-5.095 6.422c-1.882-3.001-2.757-6.087-7.143-5.612-8.417.948-8.674 15.817-8.165 25.512l12.757-2.042v5.103l-12.757 2.551v57.147l-10.714 1.53V39.444l-15.614 3.469v-5.714z" stroke="currentColor" stroke-width=".36" fill="currentColor" fill-rule="nonzero"/><path stroke="currentColor" stroke-width=".36" fill="currentColor" fill-rule="nonzero" d="M252.079 40.362l11.225-2.041v54.085l-11.225 1.532z"/><ellipse stroke="currentColor" stroke-width=".5" fill="currentColor" fill-rule="nonzero" transform="rotate(165.001 257.882 24.417)" cx="257.882" cy="24.417" rx="6.51" ry="3.807"/><path d="M211.732 47.742l-3.689 1.665c-2.01-.818-3.169-2.396-3.78-4.635-.393-1.438-.553-2.272-.159-3.71l7.876-1.975c-1.429 1.413-1.95 2.983-1.688 5.063.192 1.53.389 2.556 1.44 3.592zM174.158 43.942c0 4.68-.308 8.04-1.507 12.06-1.199 4.02-2.048 5.453-3.488 7.583s-3.33 4.312-6.06 5.783c-2.729 1.47-5.041 2.34-9.3 2.25-4.26-.09-7.8-2.43-8.52-2.97-.72-.54-1.08-.93-1.08-.93l6.93-7.23s1.917 1.934 3.607 1.658c2.07-.337 2.948-.81 4.208-2.25.714-.815 1.334-2.257 1.905-4.237s1.74-6.57 1.14-15.72c-.6-9.15-2.16-11.49-3.54-13.26-1.38-1.77-3.54-2.04-4.32-1.979-.78.06-2.602.534-4.522 4.034-2.078 3.787-2.475 7.695-2.768 10.096-.302 2.481-.24 4.709-.21 6.42.03 1.71.24 3.72.39 4.62.149.9.337 1.566.337 1.566s-1.837 1.523-4.508 4.013c-2.67 2.49-4.627 4.672-4.627 4.672s-1.957-3.87-2.655-7.155c-.698-3.285-1.125-6.772-1.058-9.18.068-2.407.293-5.422.855-8.055s1.597-5.625 2.722-7.92c1.125-2.294 3.016-4.747 4.005-5.759a21.392 21.392 0 013.712-3.016c1.417-.9 3.803-1.688 5.423-2.025 1.62-.337 4.77-.359 6.232-.134 1.462.225 4.814.584 8.189 2.812 3.375 2.227 4.95 5.265 6.166 8.122 1.215 2.858 1.732 6.346 2.002 9.045.272 2.699.34 7.086.34 7.086z" fill="currentColor" fill-rule="nonzero"/></g></svg>