<svg xmlns="http://www.w3.org/2000/svg" xml:space="preserve" width="1190.552" height="1683.779"><switch><g><path fill="#360C0F" fill-rule="evenodd" d="m711.249 1114.776-9.844 4.441c-5.359-2.18-8.438-6.391-10.078-12.359-1.047-3.836-1.469-6.062-.422-9.895l21-5.266c-3.812 3.766-5.188 7.953-4.5 13.504.516 4.079 1.047 6.813 3.844 9.575z" clip-rule="evenodd"/><path fill="#DE453B" fill-rule="evenodd" d="M961.296 1164.991c-3.016 36.062-21.531 62.086-51.938 62.086-28.938 0-52.391-32.586-52.391-72.789s20.422-72.797 52.391-72.797c33.578 0 46.703 20.016 50.797 48.02l-30.797 3.176c-2.266-18.09-8.266-30.785-20-30.785-11.656 0-21.094 22.539-21.094 50.344 0 27.801 9.438 50.348 21.094 50.348 13.672 0 18.984-14.555 20.547-34.703l31.391-2.9z" clip-rule="evenodd"/><path fill="#DE453B" fill-rule="evenodd" d="M1051.327 1142.206s-.312-16.719-2.156-26.879-3.516-15.68-9.281-25.758c-5.75-10.082-19.031-15.922-26.391-17.602s-24.969-4.16-38.891 5.84-18.953 24.238-18.953 24.238 2.484 3.84 5.438 13.281c2.969 9.441 3.203 17.438 3.203 17.438l-16.875 1.762s-.641 6.641-.406 13.281 1.922 14.559 1.922 14.559l15.922-1.602s.547 1.441-1.047 12.078c-1.594 10.641-4.281 17.484-4.281 17.484l1.922 3.234s6.234 9.484 16.562 16.086c10.312 6.594 21.844 6.477 26.75 5.758 4.922-.719 14.406-2.281 22.094-8.883 7.672-6.602 12-11.758 17.266-23.039 5.28-11.28 7.452-29.276 7.202-41.276zm-34.015 28.261c-2.516 12.953-8.078 17.32-11.672 19-3.609 1.68-9.125 2.641-13.281-1.359-4.172-4-8.625-11.023-11.609-24.242-2.828-12.555-2.609-19.582-1.828-33.359.766-13.59 6.297-28.32 10.234-33.121 3.141-3.824 5.438-5.363 8.312-6.082 2.891-.719 7.125.523 9.281 2.121 2.156 1.602 5.766 3.879 8.969 13.961 3.188 10.078 3.125 14.004 3.594 19.52.578 6.781.406 14.641.406 14.641 0 9.116.109 15.959-2.406 28.92zM576.655 1101.901s.172 6.645 0 10.887c-.234 5.328-1.359 13.605-1.359 13.605-26.203 14.969-53.453 44.488-68.031 70.754-13.609 24.492-20.125 52.164 2.719 65.312 11.062 6.5 39.109 4.57 58.5-8.164v-55.789l-62.578 13.609 7.156-16.961 85.359-19.781v93.882l-20.406 4.086v-6.805c-16.328 19.047-59.906 27.875-83 16.328-32.656-16.328-29.203-75.085 2.719-111.57 26.874-30.71 47.624-51.51 78.921-69.393zM613.39 1125.034l17.688-4.082v16.484c4.922-8.703 9.562-13.172 18.375-17.883 6.453-3.449 10.719-4.68 18.031-5.242v25.652c-5.391-.262-8.656.375-13.594 2.527-9.641 4.195-14.891 10.383-17.375 20.594v98.828l-27.203 3.585v-120.296s1.906-6.438 2.719-10.645c.702-3.682 1.359-9.522 1.359-9.522z" clip-rule="evenodd"/><path fill="#DE453B" fill-rule="evenodd" d="M745.327 1148.206c-2.875-40.32-34-39.762-34-39.762s.25 2.082 1.203 3.359c.969 1.281 4 3.523 4 3.523l-15.516 7.199c-9.328-3.602-11.031-10.328-11.031-10.328s-4.547 1.914-9.766 5.848c-6.766 5.078-9.766 10.559-9.766 10.559s.078 14.664-.312 14.574c-1.641-.375-7.688-.332-7.688-.332s-4.766 12.512-5.922 22.238c-1.031 8.812-1.281 26.398.797 35.039 2.094 8.641 7.844 34.883 28.812 47.359 20.953 12.484 36 4.805 44-2.719 7.984-7.516 11.031-15.039 14.234-29.281 3.205-14.233 3.846-26.96.955-67.276zm-23.515 73.441c-5.688 7.625-9.766 7.93-16.156 7.602-7.516-.391-13.844-12.523-16.25-26.203-2.391-13.68-4.109-24.164-.594-45.48 3.125-18.961 12.125-27.988 17.406-28.68 4.406-.578 9.719.84 13.188 5.758 3.484 4.922 7.688 15.012 8.641 25.082 1.031 10.773 1.047 19.359 1.047 19.359.077 13.999-1.642 34.999-7.282 42.562z" clip-rule="evenodd"/><path fill="#DE453B" fill-rule="evenodd" d="m735.843 1108.706 27.219-4.082v133.344c0 3.391 2.938 4.492 5.438 6.805l-28.578 3.531c-1.922-2.766-4.078-5.367-4.078-7.617v-131.981zM368.468 1036.592l-1.359 19.047c-53.062 16.328-78.562 20.023-114.281 35.379-38.25 16.438-31.297 39.457-31.297 61.227v96.605c0 20.414-.281 29.882 9.516 39.46 13.281 12.82 134.047-20.023 232.672-35.375 0 0 1.391 5.078 2.719 8.156 1.703 3.929 5.438 9.531 5.438 9.531-111.562 16.328-220.766 54.617-261.234 36.734-18.328-7.945-20.406-20.406-20.406-43.539v-145.589c0-10.883 6.344-24.773 25.938-33.262 40.466-17.882 84.966-30.491 152.294-48.374z" clip-rule="evenodd"/><path fill="#DE453B" fill-rule="evenodd" d="M149.155 1182.327v15.352c32.344-28.484 98.328-30.125 107.484-25.648 17.953 8.789 23.562 25.914 26.812 41.594 4.281 20.672 4.188 41.273 21.609 49 8.062 3.57 32.062 5.132 47.078-.164 18.484-6.523 29.938-17.688 28.578-32.656-1.969-21.727-20.438-41.758-34.016-59.867-16.328-21.773-34.578-43.363-27.219-51.707 7.281-8.488 25.641-6.738 43.547-5.441v-20.41c-27.875-7.379-63.672 1.613-73.469 17.688-10.859 17.59 10.484 48.102 27.203 69.395 7.719 9.812 23.141 29.93 32.656 42.18 5.609 7.203 2.141 14.633-8.156 19.047-9.531 4.086-21.359 4.875-27.219-6.805-5.297-10.555-9.281-30.57-16.328-51.703-5.438-16.328-25.828-30.836-50.344-32.652-36.731-2.727-74.825 10.879-98.216 32.797z" clip-rule="evenodd"/><path fill="#DE453B" fill-rule="evenodd" d="M387.515 1032.51v24.492l-44.891 13.605v14.359l44.891-12.645s-.047 116.66 0 133.129c-.047 20.266 0 33.875 10.891 40.68 7.609 4.758 23.109 7.922 35.375 6.805 11.875-1.086 20.531-6.25 27.219-13.609v-17.688c-5.344 8.234-15.25 13.336-24.5 13.602-3.156.094-19.047-1.312-19.047-17.688v-151.027l35.375-8.164v-13.605l-35.375 8.164v-25.852l-29.938 5.442z" clip-rule="evenodd"/><path fill="#DE453B" fill-rule="evenodd" d="m432.421 1076.049 24.5-8.164v145.59l-24.5 8.164zM427.358 1034.975c-1.453-5.414 4.891-11.816 14.141-14.301 9.266-2.48 17.953-.102 19.406 5.316s-4.875 11.82-14.141 14.301-17.952.102-19.406-5.316zM469.155 1020.264l25.859-4.082v146.949c-5.328 5.336-8.047 8.703-12.25 14.969-7.141 10.641-10.234 17.555-13.609 29.93v-187.766zM709.999 1052.92l-4.094 17.688c-17.047 5.77-27.406 8.785-43.531 14.969-18.844 7.215-28.578 10.883-47.625 19.047 0 0-.047-5.34-.297-9.047-.266-3.742-1.062-10-1.062-10 18.25-8.184 28.75-12.414 47.625-19.051 19.843-6.309 29.609-9.324 48.984-13.606zM736.39 1086.663l41.641-10.613c0-36.738-3.953-79.691 42.828-87.098 31.297-5.055 35.719 7.77 40.141 12.828l-13.578 17.125c-5.031-8.004-7.359-16.234-19.062-14.969-22.438 2.531-23.125 42.18-21.766 68.031l34.016-5.441v13.605l-34.016 6.805v152.391l-28.562 4.078v-150.754l-41.641 9.25v-15.238z" clip-rule="evenodd"/><path fill="#DE453B" fill-rule="evenodd" d="m818.843 1095.1 29.937-5.445v144.226l-29.937 4.086zM817.515 1057.053c-1.453-5.414 4.891-11.82 14.141-14.301 9.266-2.48 17.953-.102 19.406 5.316 1.453 5.414-4.875 11.82-14.141 14.301s-17.953.102-19.406-5.316zM611.046 1104.643c0 12.48-.812 21.441-4.016 32.16-3.203 10.723-5.453 14.543-9.297 20.223s-8.875 11.496-16.156 15.418-13.453 6.242-24.812 6-20.797-6.477-22.719-7.922c-1.922-1.438-2.875-2.477-2.875-2.477l18.484-19.281s5.109 5.156 9.609 4.422c5.531-.902 7.859-2.16 11.234-6 1.891-2.176 3.547-6.02 5.078-11.301 1.516-5.281 4.641-17.52 3.031-41.922-1.594-24.398-5.75-30.637-9.438-35.359-3.672-4.719-9.438-5.438-11.516-5.277s-6.938 1.422-12.062 10.758c-5.547 10.098-6.594 20.52-7.375 26.922-.812 6.617-.641 12.559-.562 17.121.078 4.559.641 9.918 1.031 12.32.406 2.398.906 4.176.906 4.176s-4.906 4.062-12.016 10.703c-7.125 6.641-12.344 12.457-12.344 12.457s-5.219-10.32-7.078-19.078c-1.859-8.762-3-18.062-2.828-24.48.188-6.422.781-14.461 2.281-21.48s4.266-15 7.266-21.121c3-6.117 8.031-12.66 10.672-15.359s6.125-5.641 9.906-8.039 10.141-4.5 14.453-5.398c4.328-.902 12.719-.961 16.625-.363 3.906.602 12.844 1.562 21.844 7.5 9 5.941 13.203 14.043 16.438 21.66 3.234 7.621 4.625 16.922 5.344 24.121s.892 18.896.892 18.896z" clip-rule="evenodd"/></g></switch></svg>