<svg width="25px" height="20px" viewBox="0 0 25 20" version="1.1" xmlns="http://www.w3.org/2000/svg" xmlns:xlink="http://www.w3.org/1999/xlink">
    <title>“</title>
    <g id="Page-1" stroke="none" stroke-width="1" fill="none" fill-rule="evenodd">
        <path d="M5.988,19.664 C7.38,19.664 8.568,19.208 9.552,18.296 C10.536,17.384 11.028,16.184 11.028,14.696 C11.028,13.16 10.548,11.96 9.588,11.096 C8.628,10.232 7.452,9.8 6.06,9.8 C4.812,9.8 3.756,10.208 2.892,11.024 C2.748,10.4 2.7,9.728 2.748,9.008 C2.844,7.664 3.42,6.344 4.476,5.048 C5.532,3.752 6.78,2.792 8.22,2.168 L8.22,2.168 L7.572,0.872 C5.028,2.072 3.156,3.656 1.956,5.624 C0.756,7.592 0.156,9.752 0.156,12.104 C0.156,12.872 0.24,13.736 0.408,14.696 C0.576,15.656 0.924,16.52 1.452,17.288 C1.932,18.008 2.532,18.584 3.252,19.016 C3.972,19.448 4.884,19.664 5.988,19.664 Z M19.092,19.664 C20.484,19.664 21.672,19.208 22.656,18.296 C23.64,17.384 24.132,16.184 24.132,14.696 C24.132,13.16 23.652,11.96 22.692,11.096 C21.732,10.232 20.556,9.8 19.164,9.8 C17.916,9.8 16.86,10.208 15.996,11.024 C15.852,10.4 15.804,9.728 15.852,9.008 C15.948,7.664 16.524,6.344 17.58,5.048 C18.636,3.752 19.884,2.792 21.324,2.168 L21.324,2.168 L20.676,0.872 C18.132,2.072 16.26,3.656 15.06,5.624 C13.86,7.592 13.26,9.752 13.26,12.104 C13.26,12.872 13.344,13.736 13.512,14.696 C13.68,15.656 14.028,16.52 14.556,17.288 C15.036,18.008 15.636,18.584 16.356,19.016 C17.076,19.448 17.988,19.664 19.092,19.664 Z" id="“" fill="currentColor" fill-rule="nonzero"></path>
    </g>
</svg>