<svg width="68px" height="61px" viewBox="0 0 68 61" version="1.1" xmlns="http://www.w3.org/2000/svg" xmlns:xlink="http://www.w3.org/1999/xlink">
    <g id="Page-1" stroke="none" stroke-width="1" fill="currentColor" fill-rule="evenodd">
        <g id="Flechas-para-web-03" transform="translate(-50.000000, -481.000000)" fill="currentColor">
            <g id="Icono-Menu-Cuadritos-01" transform="translate(50.000000, 481.000000)">
                <polygon id="Fill-2" points="0 12.39 12 12.39 12 0.39 0 0.39"></polygon>
                <polygon id="Fill-3" points="0 36.39 12 36.39 12 24.39 0 24.39"></polygon>
                <polygon id="Fill-4" points="0 60.14 12 60.14 12 48.14 0 48.14"></polygon>
                <polygon id="Fill-5" points="28 12.39 40 12.39 40 0.39 28 0.39"></polygon>
                <polygon id="Fill-6" points="28 36.39 40 36.39 40 24.39 28 24.39"></polygon>
                <polygon id="Fill-7" points="28 60.14 40 60.14 40 48.14 28 48.14"></polygon>
                <polygon id="Fill-8" points="56 12.39 68 12.39 68 0.39 56 0.39"></polygon>
                <polygon id="Fill-9" points="56 36.39 68 36.39 68 24.39 56 24.39"></polygon>
                <polygon id="Fill-10" points="56 60.14 68 60.14 68 48.14 56 48.14"></polygon>
            </g>
        </g>
    </g>
</svg>